# xmcd
#
# Track frame offsets: 
#        150
#        34219
#        71381
#        117354
#        157606
#        198785
#        266886
#        311782
#
# Disc length: 4407 seconds
#
# Revision: 0
# Processed by: cddbd v1.5.2PL0 Copyright (c) Steve Scherf et al.
# Submitted via: ExactAudioCopyFreeDBPlugin 1.0
#
DISCID=67113508
DTITLE=Thanh Tuan - DHVN - tieng hat Thanh Tuan - Neu Em La Giai Nhan
DYEAR=2004
DGENRE=Tan Co Giao Duyen
TTITLE0=Thanh Tuan and Le Thuy - Tinh Dang Tren Dong Lua Tham
TTITLE1=Thanh Tuan and Thanh Kim Hue - Neu Em La Giai Nhan
TTITLE2=Thanh Tuan and My Chau - A Khac Chu Sa
TTITLE3=Thanh Tuan and Linh Vuong - Nua Dem Ngoai Pho
TTITLE4=Thanh Tuan and Cam Tien - Chiec Ao Mau Thien Thanh
TTITLE5=Thanh Tuan and Phuong Hang - trich doan: Hanh Khat Dai Hiep
TTITLE6=Thanh Tuan and Phuong Hang - Chung Vang Trang Doi
TTITLE7=Van Gioi, Minh Nhuong, Minh Thao - Hoa don: Van Thien Tuong
EXTD=
EXTT0=
EXTT1=
EXTT2=
EXTT3=
EXTT4=
EXTT5=
EXTT6=
EXTT7=
PLAYORDER=
